<?xml version="1.0" encoding="UTF-8" standalone="no"?>
<!DOCTYPE svg PUBLIC "-//W3C//DTD SVG 1.1//EN" "http://www.w3.org/Graphics/SVG/1.1/DTD/svg11.dtd">
<svg width="100%" height="100%" viewBox="0 0 100 550" version="1.1" xmlns="http://www.w3.org/2000/svg" xmlns:xlink="http://www.w3.org/1999/xlink" xml:space="preserve" xmlns:serif="http://www.serif.com/" style="fill-rule:evenodd;clip-rule:evenodd;stroke-linejoin:round;stroke-miterlimit:2;">
    <g transform="matrix(-1,0,0,1,437.738,-5.68434e-14)">
        <path d="M370.534,500L437.738,500L437.738,550L337.738,550L337.738,547.564C349.85,543.336 361.061,526.362 370.534,500ZM388.179,428.571L437.738,428.571L437.738,478.571L377.287,478.571C381.397,463.755 385.059,446.965 388.179,428.571ZM396.828,357.143L437.738,357.143L437.738,407.143L391.467,407.143C393.646,391.359 395.449,374.626 396.828,357.143ZM399.942,285.714L437.738,285.714L437.738,335.714L398.28,335.714C399.202,319.536 399.767,302.827 399.942,285.714ZM398.359,214.286L437.738,214.286L437.738,264.286L399.955,264.286C399.802,247.175 399.259,230.461 398.359,214.286ZM391.659,142.857L437.738,142.857L437.738,192.857L396.937,192.857C395.585,175.38 393.81,158.649 391.659,142.857ZM377.672,71.429L437.738,71.429L437.738,121.429L388.415,121.429C385.341,103.066 381.729,86.276 377.672,71.429ZM337.738,1.039L337.738,0L437.738,0L437.738,50L371.031,50C361.453,22.84 350.062,5.342 337.738,1.039Z" style="fill:rgb(235,235,235);"/>
    </g>
</svg>
